[img]http://i.imgur.com/00KA3.jpg[/img]
[code]
Happy Feet 2 2011 720p BRRip Xvid AC3-26k


Plot:
Mumble's son, Erik, is struggling to realize his talents in the Emperor Penguin world. Meanwhile, Mumble and his family 
and friends discover a new threat their home -- one that will take everyone working together to save them

Sources - Happy.Feet.Two.2011.720p.BluRay.x264-Felony...Thanks :P

Format                                   : AVI
Format/Info                              : Audio Video Interleave
Format profile                           : OpenDML
File size                                : 2.45 GiB
Duration                                 : 1h 39mn
Overall bit rate                         : 3 524 Kbps
Writing library                          : VirtualDub build 32839/release

Video
ID                                       : 0
Format                                   : MPEG-4 Visual
Format profile                           : Advanced Simple@L5
Format settings, BVOP                    : 1
Format settings, QPel                    : No
Format settings, GMC                     : No warppoints
Format settings, Matrix                  : Default (H.263)
Codec ID                                 : XVID
Codec ID/Hint                            : XviD
Duration                                 : 1h 39mn
Bit rate                                 : 3 000 Kbps
Width                                    : 1 280 pixels
Height                                   : 536 pixels
Display aspect ratio                     : 2.40:1
Frame rate                               : 23.976 fps
Color space                              : YUV
Chroma subsampling                       : 4:2:0
Bit depth                                : 8 bits
Scan type                                : Progressive
Compression mode                         : Lossy
Bits/(Pixel*Frame)                       : 0.182
Stream size                              : 2.09 GiB (85%)
Writing library                          : XviD 1.2.1 (UTC 2008-12-04)

Audio
ID                                       : 1
Format                                   : AC-3
Format/Info                              : Audio Coding 3
Mode extension                           : CM (complete main)
Codec ID                                 : 2000
Duration                                 : 1h 39mn
Bit rate mode                            : Constant
Bit rate                                 : 512 Kbps
Channel(s)                               : 6 channels
Channel positions                        : Front: L C R, Side: L R, LFE
Sampling rate                            : 48.0 KHz
Bit depth                                : 16 bits
Compression mode                         : Lossy
Stream size                              : 364 MiB (15%)
Alignment                                : Split accross interleaves
Interleave, duration                     : 42 ms (1.00 video frame)
Interleave, preload duration             : 500 ms



Notes -
Did my thing... :)
[/code]

Screens:
[img]http://i.imgur.com/g6jKz.jpg[/img]
[img]http://img715.imageshack.us/img715/4712/52180889.jpg[/img]
[img]http://img542.imageshack.us/img542/1073/39969740.jpg[/img]
[img]http://img826.imageshack.us/img826/689/40849030.jpg[/img]
[img]http://img442.imageshack.us/img442/1733/33673312.jpg[/img]
[img]http://img208.imageshack.us/img208/9350/happpy2.png[/img]

Greetz:
Xtreme Encode|FYA|ILLUMANTI|CM8|RX|VISI​ON|HDSCENE|xTriLL|DTRG|CRYS|REMIX​HD|BIDA|RX|REFILL|INSPiRAL|SIC|HO​PE|Anonymous|GooN
To all the people who have helped me  you know who you are

Anything to offer email us @: 26k@hushmail.me


[img]http://img851.imageshack.us/img851/5503/26ks.jpg[/img]
Thank you smallz for banner!